PathFileType	4	(X/Y/Z)	./resultDataOpenSim/trcMotMarkerGrf/sub09/qtm-13-04.trc
DataRate	CameraRate	NumFrames	NumMarkers	Units	OrigDataRate	OrigDataStartFrame	OrigNumFrames
250.000000	250.000000	8	24	m	250.000000	321	512
Frame#	Time	L.Toe.Tip			R.Toe.Tip			L.Ankle.Lat			R.Ankle.Lat			L.Ankle.Med			R.Ankle.Med			L.Heel			R.Heel			L.Knee.Lat			R.Knee.Lat			L.Knee.Med			R.Knee.Med			L.Thigh.Upper			R.Thigh.Upper			L.ASIS			R.ASIS			V.Sacral			L.Acromium			R.Acromium			C7			L.Elbow			R.Elbow			L.Wrist.Lat			R.Wrist.Lat
		X1	Y1	Z1	X2	Y2	Z2	X3	Y3	Z3	X4	Y4	Z4	X5	Y5	Z5	X6	Y6	Z6	X7	Y7	Z7	X8	Y8	Z8	X9	Y9	Z9	X10	Y10	Z10	X11	Y11	Z11	X12	Y12	Z12	X13	Y13	Z13	X14	Y14	Z14	X15	Y15	Z15	X16	Y16	Z16	X17	Y17	Z17	X18	Y18	Z18	X19	Y19	Z19	X20	Y20	Z20	X21	Y21	Z21	X22	Y22	Z22	X23	Y23	Z23	X24	Y24	Z24

321	1.28	0.19786343	0.038987039	-0.059732842	1.0852083	0.039950017	0.022246637	0.20509407	0.19767647	-0.12533609	0.93742312	0.053163681	0.065986689	0.23986599	0.18629217	-0.033922377	0.94345188	0.098195651	-0.024167258	0.15616915	0.25112494	-0.072189414	0.86672063	0.031669113	0.021608942	0.56690874	0.4054255	-0.17119244	0.96034509	0.50666452	0.12245658	0.57895876	0.38533904	-0.047934027	0.93927423	0.49492502	-0.0012628262	0.658052	0.79880822	-0.1641296	0.73201243	0.83737921	0.2025081	0.75883263	0.87813583	-0.13145823	0.79596527	0.91255794	0.11474755	0.61816124	0.95910016	0.0085620502	0.80782539	1.3420003	-0.1717859	0.78382867	1.3608529	0.15819598	0.72803719	1.405404	-0.011325325	0.62940019	1.0171511	-0.24973654	0.60254575	1.0606868	0.25963099	0.80123228	0.80503529	-0.23487368	0.67535877	0.80613718	0.33089212
322	1.284	0.20268943	0.04445465	-0.061924255	1.0851927	0.039937513	0.02224541	0.21484293	0.20340457	-0.12592616	0.93750005	0.053060113	0.066019427	0.24933357	0.19074527	-0.034351367	0.94373685	0.098176743	-0.024135909	0.16761993	0.2581121	-0.072063242	0.86670654	0.031665698	0.021602275	0.57915742	0.40484143	-0.17154989	0.96422171	0.50614487	0.1226939	0.59155826	0.38467385	-0.048292313	0.94300148	0.49450263	-0.00096678738	0.66406165	0.79918036	-0.16375182	0.73822939	0.83803447	0.20269839	0.76401601	0.87926386	-0.1313927	0.80175405	0.91336763	0.11492217	0.62411809	0.96019377	0.0089965726	0.81351717	1.3429395	-0.17180719	0.78990846	1.3619824	0.15815087	0.73403603	1.4064832	-0.011252117	0.63529749	1.018055	-0.24939847	0.6093248	1.0613784	0.26002912	0.80551021	0.80460724	-0.23493164	0.68351963	0.80699456	0.33055459
323	1.288	0.2080004	0.050182034	-0.064049551	1.0851759	0.039921506	0.022260205	0.22487928	0.20919576	-0.12662566	0.93756322	0.052960637	0.066061269	0.25896877	0.19527377	-0.034833986	0.94400795	0.098160937	-0.024092696	0.17926038	0.26503934	-0.07206458	0.86668926	0.031657664	0.021581815	0.59140209	0.40452057	-0.17187041	0.96812413	0.50566737	0.12308434	0.604316	0.38418737	-0.048639014	0.94654452	0.49406474	-0.00065137781	0.66999237	0.79976151	-0.1633278	0.74422685	0.83871712	0.20287223	0.76916937	0.88047171	-0.13130489	0.80748538	0.91422211	0.11504188	0.63021164	0.9612747	0.0093660448	0.81903701	1.3439778	-0.17188985	0.79590132	1.363181	0.15807607	0.73996391	1.4076429	-0.011216953	0.64113672	1.0189897	-0.24905901	0.61587553	1.06215	0.26037915	0.80969665	0.80428934	-0.23502991	0.69164323	0.80794208	0.33016956
324	1.292	0.21382444	0.056132118	-0.06594049	1.0851428	0.039906851	0.022294703	0.23518795	0.21501687	-0.12743	0.93756331	0.052890881	0.066117151	0.26877034	0.19989869	-0.035378836	0.94425244	0.098160588	-0.024031145	0.19109063	0.27188448	-0.072323396	0.86665769	0.031645695	0.021562294	0.60371471	0.40441994	-0.17214374	0.97198	0.50519548	0.12354929	0.61694775	0.38388581	-0.048853807	0.94995232	0.49364863	-0.00035602515	0.67585732	0.80059161	-0.16288907	0.74997589	0.83946846	0.20305134	0.77430393	0.88175617	-0.13119147	0.81316564	0.91514101	0.11512084	0.63635734	0.9623727	0.0096899029	0.82438732	1.3451114	-0.1720441	0.80181838	1.3644612	0.15797799	0.74579583	1.4088641	-0.011215265	0.64690052	1.0199679	-0.24869974	0.62224485	1.0630055	0.26068975	0.81380511	0.80409518	-0.2351598	0.69972461	0.80899074	0.32974223
325	1.296	0.22019697	0.062265032	-0.067488459	1.0850897	0.039899013	0.022337458	0.24575015	0.22083083	-0.12830758	0.93747017	0.052864888	0.066190662	0.27876805	0.20463355	-0.035996691	0.94445639	0.098184406	-0.023947865	0.203093	0.27863075	-0.072897489	0.86660809	0.031634402	0.021557515	0.61617776	0.40448484	-0.17232232	0.97572403	0.5047142	0.12403587	0.62928334	0.38378536	-0.048841302	0.95332587	0.49328961	-0.00013361258	0.6816733	0.80166603	-0.16242391	0.7554737	0.84031518	0.20325544	0.77943102	0.8831142	-0.13104898	0.81880226	0.91614333	0.11517636	0.64238664	0.96355809	0.010003574	0.82958416	1.3463389	-0.1722665	0.80767795	1.3658273	0.15786121	0.75150875	1.410132	-0.011258691	0.65254695	1.0210015	-0.24828672	0.62856212	1.0639503	0.26100537	0.81784534	0.80403107	-0.23532354	0.70775552	0.81014771	0.32927181
326	1.3	0.22713226	0.068517438	-0.068660447	1.0850223	0.039898073	0.022379233	0.25653602	0.22658326	-0.12921462	0.93730348	0.052875431	0.066275915	0.28897995	0.20947519	-0.036687542	0.94461257	0.098232355	-0.023845683	0.21521919	0.28526326	-0.073774942	0.86654309	0.031631041	0.021567397	0.62883334	0.40470238	-0.1723653	0.97932924	0.50422971	0.12452241	0.64142132	0.38391566	-0.048641584	0.95673368	0.49300947	2.554503e-05	0.68742407	0.80293527	-0.16192783	0.76074179	0.84126545	0.20348809	0.78456215	0.88454285	-0.13087385	0.82440135	0.91723576	0.11522329	0.64820238	0.96486418	0.01032	0.83465887	1.347656	-0.17253995	0.81349241	1.3672705	0.15772564	0.75711865	1.4114446	-0.011333613	0.65805285	1.0221029	-0.24779632	0.63486711	1.064978	0.261329	0.82181724	0.80409898	-0.23553316	0.7157258	0.81140689	0.32875381
327	1.304	0.23461169	0.074809356	-0.06947576	1.084947	0.039899993	0.022418921	0.26752092	0.23221029	-0.13012663	0.93711201	0.052907305	0.066361834	0.29939262	0.21440893	-0.03744538	0.9447239	0.098297474	-0.023734898	0.22740542	0.29176071	-0.074940753	0.86646894	0.031642361	0.021578131	0.64164585	0.40508211	-0.17227988	0.9827898	0.50375808	0.12498706	0.65356637	0.38428752	-0.048373066	0.96015636	0.49281458	0.0001984889	0.69306757	0.80434907	-0.16146304	0.76581835	0.84231799	0.20373671	0.78970889	0.88603893	-0.1306626	0.8299648	0.9184123	0.11527216	0.65383086	0.9662674	0.010623851	0.83964238	1.3490521	-0.17284716	0.81926334	1.3687779	0.15757	0.76265187	1.4128031	-0.011423897	0.6634318	1.0232843	-0.24723037	0.64111417	1.0660735	0.26163494	0.8257398	0.80430644	-0.23578642	0.72363335	0.81275775	0.32818994
328	1.308	0.2426011	0.081067114	-0.069976825	1.0848669	0.039901086	0.022460295	0.27871047	0.23766125	-0.13105155	0.93693377	0.052949097	0.066442492	0.30997344	0.21941608	-0.038264321	0.94480374	0.098371568	-0.023627921	0.23959146	0.29809595	-0.076398267	0.86639348	0.031671052	0.021574953	0.65452004	0.40560659	-0.17211198	0.98611796	0.50330917	0.12541799	0.6658019	0.38487842	-0.048133317	0.96354569	0.49269693	0.00043039066	0.69860577	0.80587562	-0.16110611	0.7707502	0.84346861	0.2039843	0.79488268	0.88759883	-0.13041196	0.83549115	0.91966057	0.1153331	0.65933999	0.96773026	0.010896401	0.84454466	1.3505096	-0.17317412	0.82498583	1.370342	0.15739453	0.76812841	1.4142046	-0.011546031	0.66870805	1.0245476	-0.24662824	0.64729446	1.0672318	0.2619304	0.82965729	0.80466177	-0.23607069	0.73149421	0.81419745	0.32759458
